<svg id="Capa_1" enable-background="new 0 0 512 512" height="512" viewBox="0 0 512 512" width="512" xmlns="http://www.w3.org/2000/svg"><g><g><g><g><g><g><g><g><g><circle cx="256" cy="256" fill="#a3d4ff" r="256"/></g></g></g></g></g></g></g></g><path d="m512 256c0-6.852-.27-13.641-.798-20.357l-102.388-102.389-304.022 247.461 130.456 130.456c6.844.549 13.765.829 20.752.829 141.385 0 256-114.615 256-256z" fill="#65b1fc"/><g><g><g><g><g><g><g><g><path d="m98.408 372.557c-24.175-32.593-38.408-72.859-38.408-116.557 0-3.782.102-7.443.313-11.172l42.926-111.64c23.361-28.996 54.86-51.264 90.972-63.249l123.584.002c36.162 12.004 67.649 34.256 91.018 63.313l42.88 111.699c.203 3.647.307 7.349.307 11.047 0 43.791-14.216 84.032-38.486 116.662-24.474 32.905-59.352 58.122-99.412 70.582-18.412 5.727-37.806 8.756-58.102 8.756-20.172 0-39.619-3.044-57.932-8.703z" fill="#fff"/></g></g></g></g></g></g></g></g><g><g><g><g><g><g><g><g><path d="m451.693 244.953-42.88-111.699c-23.37-29.057-54.857-51.309-91.018-63.313l-61.799-.001v382.06h.003c20.296 0 39.69-3.029 58.102-8.756 40.06-12.46 74.938-37.678 99.412-70.582 24.271-32.63 38.487-72.87 38.487-116.662 0-3.698-.104-7.4-.307-11.047z" fill="#e9edf5"/></g></g></g></g></g></g></g></g><g><path d="m256 192.583-67.285 48.885 25.701 79.098h83.168l25.701-79.098z" fill="#555a66"/></g><g><path d="m323.285 241.468-67.285-48.885-.003.002v127.981h41.587z" fill="#333940"/></g><g><path d="m194.211 69.938-5.496 16.899 67.285 48.887 67.285-48.886-5.49-16.897c-19.427-6.449-40.203-9.941-61.795-9.941-21.591 0-42.362 3.489-61.789 9.938z" fill="#555a66"/></g><g><path d="m323.285 86.838-5.49-16.897c-19.427-6.449-40.203-9.941-61.795-9.941-.001 0-.002 0-.003 0v75.721l.004.003z" fill="#333940"/></g><g><path d="m451.694 244.953c-2.348-42.161-18.023-80.793-42.88-111.699l-29.107 3.689-15.55 81.702 72.898 40.036z" fill="#333940"/></g><g><path d="m413.514 372.662-6.191-19.696h-83.169l-25.701 79.098 15.648 11.18c40.375-12.47 74.848-37.384 99.413-70.582z" fill="#333940"/></g><g><path d="m60.313 244.828 14.631 13.854 72.898-40.036-15.55-81.702-29.054-3.756c-24.855 30.906-40.576 69.479-42.925 111.64z" fill="#555a66"/></g><g><path d="m104.677 352.966-6.269 19.592c24.565 33.198 59.286 58.269 99.659 70.739l15.479-11.233-25.701-79.098z" fill="#555a66"/></g></g></svg>